# xmcd CD database file
#
# Track frame offsets:
#	150
#	24317
#	47302
#	69700
#	89642
#
# Disc length: 1469 seconds
#
# Revision: 0
# Processed by: cddbd v1.5PL3 Copyright (c) Steve Scherf et al.
# Submitted via: CDex 1.51
#
DISCID=3805bb05
DTITLE=小林清美 - After The Moment
DYEAR=1997
DGENRE=Japanese Pop
TTITLE0=風のレクイエム
TTITLE1=想い届かぬならば
TTITLE2=BIBLE OF HEART
TTITLE3=Caged Bird
TTITLE4=一人の夜に
EXTD=YEAR: 1997
EXTT0=
EXTT1=
EXTT2=
EXTT3=
EXTT4=
PLAYORDER=
